<svg width="37" height="37" viewBox="0 0 37 37" fill="none" xmlns="http://www.w3.org/2000/svg">
<g clip-path="url(#clip0_49_355)">
<path d="M11.1916 0.127776C9.24978 0.21933 7.92377 0.529276 6.76444 0.984613C5.5648 1.45227 4.54782 2.07961 3.53601 3.09507C2.52435 4.11053 1.90112 5.12812 1.43696 6.32989C0.987703 7.4915 0.683232 8.81873 0.597457 10.7616C0.511682 12.7045 0.492672 13.3291 0.502253 18.2852C0.511682 23.2409 0.533582 23.8622 0.627722 25.8092C0.720493 27.7505 1.02922 29.0762 1.48471 30.2359C1.95313 31.4356 2.57971 32.4522 3.59563 33.4643C4.61139 34.4764 5.62822 35.0981 6.83272 35.563C7.99342 36.0117 9.32096 36.3175 11.2635 36.4025C13.2061 36.4877 13.8313 36.5075 18.7859 36.4979C23.7404 36.4885 24.3643 36.4664 26.3106 36.3741C28.2573 36.2818 29.5759 35.9708 30.736 35.5174C31.9358 35.0481 32.953 34.4224 33.9644 33.4063C34.9757 32.3901 35.5985 31.3718 36.0624 30.1694C36.5121 29.0087 36.8176 27.6813 36.9019 25.7401C36.987 23.7921 37.0071 23.1702 36.9977 18.215C36.9881 13.2597 36.9658 12.6385 36.8734 10.6922C36.7811 8.74603 36.4719 7.42443 36.0168 6.26403C35.5477 5.06425 34.9218 4.04848 33.9064 3.03561C32.891 2.02273 31.8717 1.40041 30.67 0.937619C29.5083 0.488213 28.1817 0.182069 26.2392 0.0981193C24.2966 0.0141693 23.6714 -0.00757863 18.715 0.0021547C13.7586 0.0115839 13.1381 0.0328755 11.1916 0.127776ZM11.4048 33.1194C9.62543 33.042 8.65924 32.7463 8.01532 32.4989C7.16274 32.1704 6.55532 31.7733 5.91368 31.1377C5.27189 30.5023 4.87784 29.8928 4.54493 29.042C4.29491 28.3981 3.99378 27.433 3.91059 25.6536C3.8201 23.7305 3.80109 23.153 3.79045 18.2806C3.7798 13.4083 3.79851 12.8314 3.88276 10.9076C3.9588 9.12974 4.25628 8.16249 4.50326 7.51887C4.83176 6.66523 5.22748 6.05887 5.86441 5.41769C6.50133 4.77635 7.10906 4.38139 7.96057 4.04848C8.60388 3.79739 9.56885 3.49885 11.3475 3.41414C13.2721 3.32289 13.8488 3.30464 18.7205 3.294C23.5922 3.28335 24.1704 3.3016 26.0957 3.38646C27.8736 3.46372 28.8413 3.75831 29.4842 4.00696C30.337 4.33546 30.9442 4.72997 31.5853 5.36811C32.2267 6.00595 32.6219 6.61154 32.9549 7.46488C33.2063 8.10622 33.5049 9.07088 33.5889 10.8507C33.6804 12.7753 33.7013 13.3525 33.71 18.2237C33.7188 23.0949 33.7016 23.6735 33.6172 25.5967C33.5396 27.3761 33.2446 28.3426 32.9967 28.9873C32.6682 29.8395 32.2723 30.4473 31.6349 31.0881C30.9977 31.7292 30.3907 32.124 29.5388 32.4569C28.8964 32.7077 27.9302 33.007 26.1531 33.0917C24.2283 33.1822 23.6516 33.2012 18.7781 33.2118C13.9046 33.2225 13.3294 33.2027 11.4048 33.1194ZM26.2827 8.49601C26.2834 8.92919 26.4126 9.35242 26.6538 9.71218C26.8951 10.0719 27.2377 10.3521 27.6382 10.5171C28.0387 10.6822 28.4791 10.7248 28.9038 10.6395C29.3285 10.5542 29.7184 10.3449 30.0241 10.038C30.3299 9.73113 30.5377 9.34048 30.6214 8.91546C30.7051 8.49044 30.6609 8.05015 30.4943 7.65028C30.3277 7.2504 30.0463 6.9089 29.6857 6.66897C29.325 6.42904 28.9013 6.30146 28.4681 6.30236C27.8874 6.30357 27.331 6.53533 26.9212 6.9467C26.5114 7.35806 26.2817 7.91534 26.2827 8.49601ZM9.37936 18.2683C9.38955 23.444 13.593 27.6301 18.7675 27.6203C23.9423 27.6105 28.1312 23.4075 28.1215 18.2318C28.1116 13.0561 23.9073 8.86876 18.7319 8.87895C13.5565 8.88914 9.36962 13.0932 9.37936 18.2683ZM12.6666 18.2617C12.6643 17.0586 13.0187 15.8817 13.6852 14.88C14.3516 13.8783 15.3002 13.0967 16.4108 12.6341C17.5215 12.1715 18.7444 12.0486 19.9249 12.2809C21.1054 12.5133 22.1905 13.0906 23.043 13.9396C23.8954 14.7887 24.477 15.8715 24.714 17.0511C24.9511 18.2306 24.8331 19.454 24.3749 20.5665C23.9166 21.679 23.1388 22.6306 22.1398 23.3011C21.1407 23.9715 19.9653 24.3306 18.7621 24.3331C17.9632 24.3347 17.1718 24.179 16.4331 23.8748C15.6944 23.5706 15.0228 23.1238 14.4568 22.56C13.8907 21.9962 13.4413 21.3265 13.1342 20.5889C12.827 19.8514 12.6681 19.0606 12.6666 18.2617Z" fill="#262A2E"/>
</g>
<defs>
<clipPath id="clip0_49_355">
<rect width="36.5" height="36.5" fill="white" transform="translate(0.5)"/>
</clipPath>
</defs>
</svg>
