<svg width="37" height="37" viewBox="0 0 37 37" fill="none" xmlns="http://www.w3.org/2000/svg">
<g clip-path="url(#clip0_49_357)">
<path d="M19.5485 0.530417C21.5408 0.5 23.5179 0.515208 25.495 0.5C25.6167 2.82687 26.4531 5.19937 28.1565 6.84187C29.8598 8.53 32.2627 9.30562 34.6048 9.56417V15.6931C32.4148 15.6171 30.2096 15.1608 28.2173 14.2179C27.3504 13.8225 26.5444 13.3206 25.7535 12.8035C25.7383 17.2444 25.7687 21.6852 25.7231 26.1108C25.6015 28.24 24.9019 30.354 23.67 32.1029C21.6777 35.0229 18.2254 36.924 14.6819 36.9848C12.5071 37.1065 10.3323 36.5133 8.47687 35.4183C5.40479 33.6085 3.24521 30.2931 2.92583 26.7344C2.89541 25.974 2.88021 25.2135 2.91062 24.4683C3.18437 21.5787 4.61396 18.8108 6.83437 16.925C9.35896 14.735 12.8873 13.6856 16.1875 14.3092C16.2179 16.56 16.1267 18.8108 16.1267 21.0617C14.621 20.575 12.8569 20.7119 11.5337 21.6244C10.5756 22.2479 9.84562 23.206 9.46541 24.2858C9.14604 25.0615 9.23729 25.9131 9.2525 26.7344C9.6175 29.2285 12.0204 31.3273 14.5754 31.0992C16.2787 31.084 17.906 30.0954 18.7881 28.6506C19.0771 28.1487 19.3965 27.6317 19.4117 27.0385C19.5637 24.3162 19.5029 21.6092 19.5181 18.8869C19.5333 12.7579 19.5029 6.64417 19.5485 0.530417Z" fill="#262A2E"/>
</g>
<defs>
<clipPath id="clip0_49_357">
<rect width="36.5" height="36.5" fill="white" transform="translate(0.5 0.5)"/>
</clipPath>
</defs>
</svg>
